# xmcd
#
# Track frame offsets:
#	150
#	11856
#	33447
#	52125
#	84084
#	105542
#	125064
#	155268
#	178813
#	201367
#	223112
#
# Disc length: 3224 seconds
#
# Revision: 1
# Processed by: cddbd v1.5.2PL0 Copyright (c) Steve Scherf et al.
# Submitted via: audiograbber 1.83.01
#
DISCID=9a0c960b
DTITLE=Leo Kysela - The Band Live 
DYEAR=2004
DGENRE=Austro
TTITLE0=Homage  
TTITLE1=The First Time
TTITLE2=Live's So Blue Without
TTITLE3=One
TTITLE4=Walk On The Wild Side
TTITLE5=Desire
TTITLE6=Love Would Set Me Free
TTITLE7=Love Is Blindness
TTITLE8=Sweetest Thing
TTITLE9=In A Little While
TTITLE10=Desire (Radio Edit)
EXTD=
EXTT0=
EXTT1=
EXTT2=
EXTT3=
EXTT4=
EXTT5=
EXTT6=
EXTT7=
EXTT8=
EXTT9=
EXTT10=
PLAYORDER=
